<mxfile host="app.diagrams.net" modified="2020-11-05T07:11:28.177Z" agent="5.0 (X11; CrOS x86_64 13421.73.0) AppleWebKit/537.36 (KHTML, like Gecko) Chrome/86.0.4240.112 Safari/537.36" etag="JtdRsCvRVyTmhJgksbb5" version="13.9.1" type="github">
  <diagram id="R2lEEEUBdFMjLlhIrx00" name="Page-1">
    <mxGraphModel dx="2480" dy="1263" grid="1" gridSize="10" guides="1" tooltips="1" connect="1" arrows="1" fold="1" page="1" pageScale="1" pageWidth="850" pageHeight="1100" math="0" shadow="0" extFonts="Permanent Marker^https://fonts.googleapis.com/css?family=Permanent+Marker">
      <root>
        <mxCell id="0" />
        <mxCell id="1" parent="0" />
        <mxCell id="eu0dvFVVaQbP-CDpSCnt-121" style="edgeStyle=none;rounded=0;orthogonalLoop=1;jettySize=auto;html=1;entryX=0;entryY=0.5;entryDx=0;entryDy=0;endArrow=none;endFill=0;strokeColor=#97D077;" parent="1" edge="1">
          <mxGeometry relative="1" as="geometry">
            <mxPoint x="470" y="540" as="sourcePoint" />
            <mxPoint x="470" y="540" as="targetPoint" />
          </mxGeometry>
        </mxCell>
        <object label="usuarios" id="5L7Wn1pcYuVviG9s-a1G-27">
          <mxCell style="swimlane;fontStyle=1;childLayout=stackLayout;horizontal=1;startSize=26;horizontalStack=0;resizeParent=1;resizeParentMax=0;resizeLast=0;collapsible=1;marginBottom=0;align=left;fontSize=14;labelBorderColor=none;spacing=2;comic=0;" parent="1" vertex="1">
            <mxGeometry x="40" y="31" width="200" height="181.29" as="geometry">
              <mxRectangle x="20" y="30" width="90" height="26" as="alternateBounds" />
            </mxGeometry>
          </mxCell>
        </object>
        <mxCell id="5L7Wn1pcYuVviG9s-a1G-28" value="id: INTEGER (PK)" style="text;fillColor=none;spacingLeft=4;spacingRight=4;overflow=hidden;rotatable=0;points=[[0,0.5],[1,0.5]];portConstraint=eastwest;fontSize=12;fontStyle=0;strokeColor=#000000;" parent="5L7Wn1pcYuVviG9s-a1G-27" vertex="1">
          <mxGeometry y="26" width="200" height="30" as="geometry" />
        </mxCell>
        <mxCell id="5L7Wn1pcYuVviG9s-a1G-29" value="login: VARCHAR(30) NN" style="text;strokeColor=none;fillColor=none;spacingLeft=4;spacingRight=4;overflow=hidden;rotatable=0;points=[[0,0.5],[1,0.5]];portConstraint=eastwest;fontSize=12;" parent="5L7Wn1pcYuVviG9s-a1G-27" vertex="1">
          <mxGeometry y="56" width="200" height="30" as="geometry" />
        </mxCell>
        <mxCell id="5L7Wn1pcYuVviG9s-a1G-30" value="password: VARCHAR(32) NN" style="text;strokeColor=none;fillColor=none;spacingLeft=4;spacingRight=4;overflow=hidden;rotatable=0;points=[[0,0.5],[1,0.5]];portConstraint=eastwest;fontSize=12;labelBackgroundColor=#ffffff;aspect=fixed;" parent="5L7Wn1pcYuVviG9s-a1G-27" vertex="1">
          <mxGeometry y="86" width="200" height="30" as="geometry" />
        </mxCell>
        <mxCell id="5L7Wn1pcYuVviG9s-a1G-50" value="nickname: VARCHAR(40) NN" style="text;strokeColor=none;fillColor=none;spacingLeft=4;spacingRight=4;overflow=hidden;rotatable=0;points=[[0,0.5],[1,0.5]];portConstraint=eastwest;fontSize=12;labelBackgroundColor=#ffffff;aspect=fixed;" parent="5L7Wn1pcYuVviG9s-a1G-27" vertex="1">
          <mxGeometry y="116" width="200" height="30" as="geometry" />
        </mxCell>
        <mxCell id="5L7Wn1pcYuVviG9s-a1G-51" value="email: VARCHAR(40) NN UNIQUE" style="text;strokeColor=none;fillColor=none;spacingLeft=4;spacingRight=4;overflow=hidden;rotatable=0;points=[[0,0.5],[1,0.5]];portConstraint=eastwest;fontSize=12;labelBackgroundColor=#ffffff;aspect=fixed;" parent="5L7Wn1pcYuVviG9s-a1G-27" vertex="1">
          <mxGeometry y="146" width="200" height="35.29" as="geometry" />
        </mxCell>
        <object label="posts" id="5L7Wn1pcYuVviG9s-a1G-52">
          <mxCell style="swimlane;fontStyle=1;childLayout=stackLayout;horizontal=1;startSize=26;horizontalStack=0;resizeParent=1;resizeParentMax=0;resizeLast=0;collapsible=1;marginBottom=0;align=left;fontSize=14;labelBorderColor=none;spacing=2;comic=0;" parent="1" vertex="1">
            <mxGeometry x="260" y="230" width="270" height="214" as="geometry">
              <mxRectangle x="20" y="30" width="90" height="26" as="alternateBounds" />
            </mxGeometry>
          </mxCell>
        </object>
        <mxCell id="5L7Wn1pcYuVviG9s-a1G-53" value="id: INTEGER (PK)" style="text;fillColor=none;spacingLeft=4;spacingRight=4;overflow=hidden;rotatable=0;points=[[0,0.5],[1,0.5]];portConstraint=eastwest;fontSize=12;fontStyle=0;strokeColor=#000000;" parent="5L7Wn1pcYuVviG9s-a1G-52" vertex="1">
          <mxGeometry y="26" width="270" height="30" as="geometry" />
        </mxCell>
        <mxCell id="5L7Wn1pcYuVviG9s-a1G-54" value="titulo: VARCHAR(150)" style="text;strokeColor=none;fillColor=none;spacingLeft=4;spacingRight=4;overflow=hidden;rotatable=0;points=[[0,0.5],[1,0.5]];portConstraint=eastwest;fontSize=12;" parent="5L7Wn1pcYuVviG9s-a1G-52" vertex="1">
          <mxGeometry y="56" width="270" height="30" as="geometry" />
        </mxCell>
        <mxCell id="5L7Wn1pcYuVviG9s-a1G-55" value="fecha_publicación: TIMESTAMP" style="text;strokeColor=none;fillColor=none;spacingLeft=4;spacingRight=4;overflow=hidden;rotatable=0;points=[[0,0.5],[1,0.5]];portConstraint=eastwest;fontSize=12;labelBackgroundColor=#ffffff;aspect=fixed;" parent="5L7Wn1pcYuVviG9s-a1G-52" vertex="1">
          <mxGeometry y="86" width="270" height="30" as="geometry" />
        </mxCell>
        <mxCell id="5L7Wn1pcYuVviG9s-a1G-56" value="contenido: TEXT" style="text;strokeColor=none;fillColor=none;spacingLeft=4;spacingRight=4;overflow=hidden;rotatable=0;points=[[0,0.5],[1,0.5]];portConstraint=eastwest;fontSize=12;labelBackgroundColor=#ffffff;aspect=fixed;" parent="5L7Wn1pcYuVviG9s-a1G-52" vertex="1">
          <mxGeometry y="116" width="270" height="30" as="geometry" />
        </mxCell>
        <mxCell id="5L7Wn1pcYuVviG9s-a1G-57" value="estatus: CHAR(8) CHECK IN (&#39;activo&#39;, &#39;inactivo&#39;)" style="text;strokeColor=none;fillColor=none;spacingLeft=4;spacingRight=4;overflow=hidden;rotatable=0;points=[[0,0.5],[1,0.5]];portConstraint=eastwest;fontSize=12;labelBackgroundColor=#ffffff;" parent="5L7Wn1pcYuVviG9s-a1G-52" vertex="1">
          <mxGeometry y="146" width="270" height="34" as="geometry" />
        </mxCell>
        <mxCell id="5L7Wn1pcYuVviG9s-a1G-76" value="usuarios_id: INTEGER FK" style="text;strokeColor=none;fillColor=none;spacingLeft=4;spacingRight=4;overflow=hidden;rotatable=0;points=[[0,0.5],[1,0.5]];portConstraint=eastwest;fontSize=12;labelBackgroundColor=#ffffff;fontColor=#3333FF;" parent="5L7Wn1pcYuVviG9s-a1G-52" vertex="1">
          <mxGeometry y="180" width="270" height="34" as="geometry" />
        </mxCell>
        <object label="comentarios" id="5L7Wn1pcYuVviG9s-a1G-58">
          <mxCell style="swimlane;fontStyle=1;childLayout=stackLayout;horizontal=1;startSize=26;horizontalStack=0;resizeParent=1;resizeParentMax=0;resizeLast=0;collapsible=1;marginBottom=0;align=left;fontSize=14;labelBorderColor=none;spacing=2;comic=0;" parent="1" vertex="1">
            <mxGeometry x="500" y="31" width="200" height="116" as="geometry">
              <mxRectangle x="20" y="30" width="90" height="26" as="alternateBounds" />
            </mxGeometry>
          </mxCell>
        </object>
        <mxCell id="5L7Wn1pcYuVviG9s-a1G-59" value="id: INTEGER (PK)" style="text;fillColor=none;spacingLeft=4;spacingRight=4;overflow=hidden;rotatable=0;points=[[0,0.5],[1,0.5]];portConstraint=eastwest;fontSize=12;fontStyle=0;strokeColor=#000000;" parent="5L7Wn1pcYuVviG9s-a1G-58" vertex="1">
          <mxGeometry y="26" width="200" height="30" as="geometry" />
        </mxCell>
        <mxCell id="5L7Wn1pcYuVviG9s-a1G-60" value="comentario: TEXT" style="text;strokeColor=none;fillColor=none;spacingLeft=4;spacingRight=4;overflow=hidden;rotatable=0;points=[[0,0.5],[1,0.5]];portConstraint=eastwest;fontSize=12;" parent="5L7Wn1pcYuVviG9s-a1G-58" vertex="1">
          <mxGeometry y="56" width="200" height="30" as="geometry" />
        </mxCell>
        <mxCell id="5L7Wn1pcYuVviG9s-a1G-75" value="usuarios_id: INTEGER FK" style="text;strokeColor=none;fillColor=none;spacingLeft=4;spacingRight=4;overflow=hidden;rotatable=0;points=[[0,0.5],[1,0.5]];portConstraint=eastwest;fontSize=12;fontColor=#3333FF;" parent="5L7Wn1pcYuVviG9s-a1G-58" vertex="1">
          <mxGeometry y="86" width="200" height="30" as="geometry" />
        </mxCell>
        <object label="categorías" id="5L7Wn1pcYuVviG9s-a1G-64">
          <mxCell style="swimlane;fontStyle=1;childLayout=stackLayout;horizontal=1;startSize=26;horizontalStack=0;resizeParent=1;resizeParentMax=0;resizeLast=0;collapsible=1;marginBottom=0;align=left;fontSize=14;labelBorderColor=none;spacing=2;comic=0;" parent="1" vertex="1">
            <mxGeometry x="40" y="519" width="200" height="86" as="geometry">
              <mxRectangle x="20" y="30" width="90" height="26" as="alternateBounds" />
            </mxGeometry>
          </mxCell>
        </object>
        <mxCell id="5L7Wn1pcYuVviG9s-a1G-65" value="id: INTEGER (PK)" style="text;fillColor=none;spacingLeft=4;spacingRight=4;overflow=hidden;rotatable=0;points=[[0,0.5],[1,0.5]];portConstraint=eastwest;fontSize=12;fontStyle=0;strokeColor=#000000;" parent="5L7Wn1pcYuVviG9s-a1G-64" vertex="1">
          <mxGeometry y="26" width="200" height="30" as="geometry" />
        </mxCell>
        <mxCell id="5L7Wn1pcYuVviG9s-a1G-66" value="categoría: VARCHAR(30)" style="text;strokeColor=none;fillColor=none;spacingLeft=4;spacingRight=4;overflow=hidden;rotatable=0;points=[[0,0.5],[1,0.5]];portConstraint=eastwest;fontSize=12;" parent="5L7Wn1pcYuVviG9s-a1G-64" vertex="1">
          <mxGeometry y="56" width="200" height="30" as="geometry" />
        </mxCell>
        <object label="etiquetas" id="5L7Wn1pcYuVviG9s-a1G-67">
          <mxCell style="swimlane;fontStyle=1;childLayout=stackLayout;horizontal=1;startSize=26;horizontalStack=0;resizeParent=1;resizeParentMax=0;resizeLast=0;collapsible=1;marginBottom=0;align=left;fontSize=14;labelBorderColor=none;spacing=2;comic=0;" parent="1" vertex="1">
            <mxGeometry x="500" y="519" width="200" height="86" as="geometry">
              <mxRectangle x="20" y="30" width="90" height="26" as="alternateBounds" />
            </mxGeometry>
          </mxCell>
        </object>
        <mxCell id="5L7Wn1pcYuVviG9s-a1G-68" value="id: INTEGER (PK)" style="text;fillColor=none;spacingLeft=4;spacingRight=4;overflow=hidden;rotatable=0;points=[[0,0.5],[1,0.5]];portConstraint=eastwest;fontSize=12;fontStyle=0;strokeColor=#000000;" parent="5L7Wn1pcYuVviG9s-a1G-67" vertex="1">
          <mxGeometry y="26" width="200" height="30" as="geometry" />
        </mxCell>
        <mxCell id="5L7Wn1pcYuVviG9s-a1G-69" value="nombre_etiqueta: VARCHAR(30)" style="text;strokeColor=none;fillColor=none;spacingLeft=4;spacingRight=4;overflow=hidden;rotatable=0;points=[[0,0.5],[1,0.5]];portConstraint=eastwest;fontSize=12;" parent="5L7Wn1pcYuVviG9s-a1G-67" vertex="1">
          <mxGeometry y="56" width="200" height="30" as="geometry" />
        </mxCell>
        <mxCell id="5L7Wn1pcYuVviG9s-a1G-72" value="" style="edgeStyle=orthogonalEdgeStyle;fontSize=12;html=1;endArrow=ERmany;endFill=0;startArrow=ERone;startFill=0;strokeWidth=2;rounded=0;entryX=0;entryY=0.5;entryDx=0;entryDy=0;exitX=0.486;exitY=1.154;exitDx=0;exitDy=0;exitPerimeter=0;dashed=1;" parent="1" source="5L7Wn1pcYuVviG9s-a1G-51" target="5L7Wn1pcYuVviG9s-a1G-55" edge="1">
          <mxGeometry width="100" height="100" relative="1" as="geometry">
            <mxPoint x="130" y="240" as="sourcePoint" />
            <mxPoint x="200" y="240" as="targetPoint" />
            <Array as="points">
              <mxPoint x="137" y="331" />
            </Array>
          </mxGeometry>
        </mxCell>
        <mxCell id="5L7Wn1pcYuVviG9s-a1G-74" value="" style="fontSize=12;html=1;endArrow=ERmany;endFill=0;startArrow=ERone;startFill=0;strokeWidth=2;rounded=0;entryX=0;entryY=0.5;entryDx=0;entryDy=0;exitX=1;exitY=0.5;exitDx=0;exitDy=0;dashed=1;" parent="1" source="5L7Wn1pcYuVviG9s-a1G-29" target="5L7Wn1pcYuVviG9s-a1G-60" edge="1">
          <mxGeometry width="100" height="100" relative="1" as="geometry">
            <mxPoint x="290.00000000000006" y="56.72465999999997" as="sourcePoint" />
            <mxPoint x="412.8" y="200" as="targetPoint" />
          </mxGeometry>
        </mxCell>
        <mxCell id="5L7Wn1pcYuVviG9s-a1G-77" value="" style="fontSize=12;html=1;endArrow=ERmany;endFill=0;startArrow=ERone;startFill=0;strokeWidth=2;rounded=0;entryX=0.489;entryY=1.015;entryDx=0;entryDy=0;dashed=1;entryPerimeter=0;exitX=1;exitY=0.5;exitDx=0;exitDy=0;edgeStyle=orthogonalEdgeStyle;" parent="1" source="5L7Wn1pcYuVviG9s-a1G-55" target="5L7Wn1pcYuVviG9s-a1G-75" edge="1">
          <mxGeometry width="100" height="100" relative="1" as="geometry">
            <mxPoint x="550" y="362" as="sourcePoint" />
            <mxPoint x="547.8" y="393.28" as="targetPoint" />
          </mxGeometry>
        </mxCell>
        <mxCell id="5L7Wn1pcYuVviG9s-a1G-78" value="" style="fontSize=12;html=1;endArrow=ERmany;endFill=0;startArrow=ERone;startFill=0;strokeWidth=2;rounded=0;dashed=1;exitX=0.5;exitY=0;exitDx=0;exitDy=0;edgeStyle=orthogonalEdgeStyle;entryX=0.486;entryY=1.141;entryDx=0;entryDy=0;entryPerimeter=0;" parent="1" source="5L7Wn1pcYuVviG9s-a1G-64" target="5L7Wn1pcYuVviG9s-a1G-76" edge="1">
          <mxGeometry width="100" height="100" relative="1" as="geometry">
            <mxPoint x="490" y="444.55" as="sourcePoint" />
            <mxPoint x="314" y="477" as="targetPoint" />
            <Array as="points">
              <mxPoint x="140" y="480" />
              <mxPoint x="391" y="480" />
            </Array>
          </mxGeometry>
        </mxCell>
        <object label="post_etiquetas" id="5L7Wn1pcYuVviG9s-a1G-80">
          <mxCell style="swimlane;fontStyle=1;childLayout=stackLayout;horizontal=1;startSize=26;horizontalStack=0;resizeParent=1;resizeParentMax=0;resizeLast=0;collapsible=1;marginBottom=0;align=left;fontSize=14;labelBorderColor=none;spacing=2;comic=0;fontColor=#FF0000;" parent="1" vertex="1">
            <mxGeometry x="630" y="380" width="200" height="86" as="geometry">
              <mxRectangle x="20" y="30" width="90" height="26" as="alternateBounds" />
            </mxGeometry>
          </mxCell>
        </object>
        <mxCell id="5L7Wn1pcYuVviG9s-a1G-81" value="post_id: INTEGER (PK, FK)" style="text;fillColor=none;spacingLeft=4;spacingRight=4;overflow=hidden;rotatable=0;points=[[0,0.5],[1,0.5]];portConstraint=eastwest;fontSize=12;fontStyle=0;strokeColor=#000000;fontColor=#FF0000;" parent="5L7Wn1pcYuVviG9s-a1G-80" vertex="1">
          <mxGeometry y="26" width="200" height="30" as="geometry" />
        </mxCell>
        <mxCell id="5L7Wn1pcYuVviG9s-a1G-82" value="etiqueta_id: INTEGER (PK, FK)" style="text;strokeColor=none;fillColor=none;spacingLeft=4;spacingRight=4;overflow=hidden;rotatable=0;points=[[0,0.5],[1,0.5]];portConstraint=eastwest;fontSize=12;fontColor=#FF0000;" parent="5L7Wn1pcYuVviG9s-a1G-80" vertex="1">
          <mxGeometry y="56" width="200" height="30" as="geometry" />
        </mxCell>
        <mxCell id="5L7Wn1pcYuVviG9s-a1G-83" value="" style="fontSize=12;html=1;endArrow=ERmany;endFill=0;startArrow=ERone;startFill=0;strokeWidth=2;rounded=0;entryX=0.5;entryY=0;entryDx=0;entryDy=0;dashed=1;exitX=1.004;exitY=0.256;exitDx=0;exitDy=0;edgeStyle=orthogonalEdgeStyle;exitPerimeter=0;fillColor=#d80073;strokeColor=#A50040;" parent="1" source="5L7Wn1pcYuVviG9s-a1G-56" target="5L7Wn1pcYuVviG9s-a1G-80" edge="1">
          <mxGeometry width="100" height="100" relative="1" as="geometry">
            <mxPoint x="455" y="371" as="sourcePoint" />
            <mxPoint x="487.79999999999995" y="156.45000000000005" as="targetPoint" />
          </mxGeometry>
        </mxCell>
        <mxCell id="5L7Wn1pcYuVviG9s-a1G-84" value="" style="fontSize=12;html=1;endArrow=ERmany;endFill=0;startArrow=ERone;startFill=0;strokeWidth=2;rounded=0;entryX=0.447;entryY=-0.036;entryDx=0;entryDy=0;dashed=1;exitX=0.517;exitY=1.075;exitDx=0;exitDy=0;exitPerimeter=0;fillColor=#d80073;strokeColor=#A50040;entryPerimeter=0;edgeStyle=orthogonalEdgeStyle;" parent="1" source="5L7Wn1pcYuVviG9s-a1G-82" target="5L7Wn1pcYuVviG9s-a1G-67" edge="1">
          <mxGeometry width="100" height="100" relative="1" as="geometry">
            <mxPoint x="456.0799999999999" y="393.67999999999995" as="sourcePoint" />
            <mxPoint x="590" y="410" as="targetPoint" />
            <Array as="points">
              <mxPoint x="733" y="500" />
              <mxPoint x="589" y="500" />
            </Array>
          </mxGeometry>
        </mxCell>
      </root>
    </mxGraphModel>
  </diagram>
</mxfile>
